<svg width="512" height="512" viewBox="0 0 512 512" xmlns="http://www.w3.org/2000/svg">
  <!-- Background circle -->
  <circle cx="256" cy="256" r="256" fill="#3b82f6"/>
  
  <!-- Brain/Mind icon with heart -->
  <g transform="translate(256, 256)">
    <!-- Brain outline -->
    <path d="M-60,-80 C-90,-80 -110,-60 -110,-30 C-110,-10 -105,10 -95,25 C-85,40 -70,50 -50,55 L50,55 C70,50 85,40 95,25 C105,10 110,-10 110,-30 C110,-60 90,-80 60,-80 C40,-80 20,-75 0,-65 C-20,-75 -40,-80 -60,-80 Z" 
          fill="white" stroke="none"/>
    
    <!-- Brain details -->
    <path d="M-40,-50 C-60,-45 -70,-25 -65,-5 C-60,15 -45,25 -25,20" 
          fill="none" stroke="#3b82f6" stroke-width="3" stroke-linecap="round"/>
    <path d="M40,-50 C60,-45 70,-25 65,-5 C60,15 45,25 25,20" 
          fill="none" stroke="#3b82f6" stroke-width="3" stroke-linecap="round"/>
    <path d="M-20,-30 C-10,-35 10,-35 20,-30" 
          fill="none" stroke="#3b82f6" stroke-width="3" stroke-linecap="round"/>
    
    <!-- Heart in the center -->
    <path d="M-15,70 C-15,60 -10,50 0,50 C10,50 15,60 15,70 C15,85 0,100 0,100 C0,100 -15,85 -15,70 Z" 
          fill="#ef4444"/>
    <circle cx="-8" cy="62" r="8" fill="#ef4444"/>
    <circle cx="8" cy="62" r="8" fill="#ef4444"/>
    
    <!-- Sparkles around -->
    <g fill="white" opacity="0.8">
      <circle cx="-80" cy="-40" r="4"/>
      <circle cx="80" cy="-40" r="4"/>
      <circle cx="-90" cy="20" r="3"/>
      <circle cx="90" cy="20" r="3"/>
      <circle cx="0" cy="-90" r="5"/>
      <circle cx="-50" cy="80" r="3"/>
      <circle cx="50" cy="80" r="3"/>
    </g>
  </g>
</svg>